<svg width="219" height="195" viewBox="0 0 219 195" fill="none" xmlns="http://www.w3.org/2000/svg">
<path d="M44.8382 128V107.816H3.31016V101.784L45.4182 46.8H54.9302V98.768H66.4142V107.816H54.9302V128H44.8382ZM44.8382 98.768V61.068L16.5342 98.768H44.8382ZM109.577 129.392C104.396 129.392 99.8717 128.193 96.005 125.796C92.1384 123.321 89.161 120.035 87.073 115.936C85.0624 111.76 83.5544 107.313 82.549 102.596C81.621 97.8787 81.157 92.8133 81.157 87.4C81.157 82.4507 81.5824 77.7333 82.433 73.248C83.2837 68.6853 84.7144 64.2387 86.725 59.908C88.7357 55.5 91.6744 51.9813 95.541 49.352C99.485 46.7227 104.164 45.408 109.577 45.408C114.758 45.408 119.282 46.6453 123.149 49.12C127.016 51.5173 129.954 54.804 131.965 58.98C134.053 63.156 135.561 67.6027 136.489 72.32C137.494 77.0373 137.997 82.064 137.997 87.4C137.997 92.3493 137.533 97.1053 136.605 101.668C135.754 106.153 134.324 110.6 132.313 115.008C130.302 119.339 127.325 122.819 123.381 125.448C119.514 128.077 114.913 129.392 109.577 129.392ZM109.577 119.88C113.057 119.88 116.034 118.913 118.509 116.98C120.984 115.047 122.801 112.379 123.961 108.976C125.198 105.573 126.049 102.171 126.513 98.768C127.054 95.288 127.325 91.4987 127.325 87.4C127.325 83.0693 127.054 79.0867 126.513 75.452C125.972 71.8173 125.044 68.4147 123.729 65.244C122.492 61.996 120.674 59.444 118.277 57.588C115.88 55.732 112.98 54.804 109.577 54.804C106.02 54.804 103.004 55.8093 100.529 57.82C98.0544 59.7533 96.1984 62.4213 94.961 65.824C93.7237 69.1493 92.8344 72.5907 92.293 76.148C91.829 79.628 91.597 83.3787 91.597 87.4C91.597 91.7307 91.8677 95.7133 92.409 99.348C92.9504 102.905 93.8784 106.308 95.193 109.556C96.5077 112.804 98.3637 115.356 100.761 117.212C103.236 118.991 106.174 119.88 109.577 119.88ZM190.971 128V107.816H149.443V101.784L191.551 46.8H201.063V98.768H212.547V107.816H201.063V128H190.971ZM190.971 98.768V61.068L162.667 98.768H190.971Z" fill="#FAC7C7"/>
<g filter="url(#filter0_d)">
<path fill-rule="evenodd" clip-rule="evenodd" d="M110.083 17.4819C107.914 14.9369 106.447 11.8179 106.692 8.32297C107.399 -1.74682 121.416 0.468404 124.143 5.55077C126.87 10.6331 126.546 23.525 123.022 24.4333C121.616 24.7956 118.622 23.9082 115.575 22.0716L117.488 35.6023H106.195L110.083 17.4819Z" fill="#B28B67"/>
<mask id="mask0" mask-type="alpha" maskUnits="userSpaceOnUse" x="98" y="0" width="27" height="50">
<path d="M122.647 3.81403C122.899 3.89857 122.647 2.81626 122.046 2.42045C120.201 1.20665 114.709 -0.589803 110.953 0.189767C108.438 0.712006 105.3 2.02287 103.291 3.69389C101.479 5.20033 99.8312 7.8561 99.1898 10.1893C98.5164 12.6392 98.2618 16.0481 99.1898 18.1855C100.295 20.731 104.209 23.4744 104.312 23.8388C104.431 24.2546 103.968 25.8789 103.629 27.5905C103.291 29.302 103.445 33.6598 103.629 34.3706C103.924 35.5064 105.505 36.0649 106.195 36.147C110.006 36.6012 112.769 41.333 113.919 42.5436C119.037 47.6823 122.609 49.9171 124.635 49.248C125.169 49.0719 124.369 42.6867 123.836 39.95C123.303 37.2132 118.073 32.3294 117.738 30.7199C117.541 29.7718 117.508 28.1214 117.488 28.0461C116.994 24.6458 117.079 24.3694 116.36 22.9839C115.64 21.5983 115.083 21.517 115.255 21.1134C116.1 19.1413 118.817 13.1073 119.434 11.1342C120.169 8.78263 119.821 9.55503 120.579 7.21142C120.914 6.17362 121.341 3.37511 122.647 3.81403Z" fill="white"/>
</mask>
<g mask="url(#mask0)">
<path d="M122.647 3.81403C122.899 3.89857 122.647 2.81626 122.046 2.42045C120.201 1.20665 114.709 -0.589803 110.953 0.189767C108.438 0.712006 105.3 2.02287 103.291 3.69389C101.479 5.20033 99.8312 7.8561 99.1898 10.1893C98.5164 12.6392 98.2618 16.0481 99.1898 18.1855C100.295 20.731 104.209 23.4744 104.312 23.8388C104.431 24.2546 103.968 25.8789 103.629 27.5905C103.291 29.302 103.445 33.6598 103.629 34.3706C103.924 35.5064 105.505 36.0649 106.195 36.147C110.006 36.6012 112.769 41.333 113.919 42.5436C119.037 47.6823 122.609 49.9171 124.635 49.248C125.169 49.0719 124.369 42.6867 123.836 39.95C123.303 37.2132 118.073 32.3294 117.738 30.7199C117.541 29.7718 117.508 28.1214 117.488 28.0461C116.994 24.6458 117.079 24.3694 116.36 22.9839C115.64 21.5983 115.083 21.517 115.255 21.1134C116.1 19.1413 118.817 13.1073 119.434 11.1342C120.169 8.78263 119.821 9.55503 120.579 7.21142C120.914 6.17362 121.341 3.37511 122.647 3.81403Z" fill="#89C5CC"/>
<path fill-rule="evenodd" clip-rule="evenodd" d="M112.931 4.0761C112.106 6.6951 111.928 8.09312 112.106 11.6716H111.701C110.944 8.29459 111.617 5.11548 112.422 4.0761H112.931ZM101.857 10.8351C103.395 14.5674 104.097 16.7715 108.392 19.7918L108.06 20.024C103.796 17.6074 102.555 14.7247 101.534 10.9906L101.857 10.8351ZM108.177 7.03688C108.876 12.3346 109.08 15.3606 112.719 21.1556L112.332 21.274C108.587 16.2283 107.993 12.1102 107.816 7.06598L108.177 7.03688ZM104.157 22.7736L104.488 22.3709C109.009 23.7869 108.505 26.7102 114.199 29.6707L113.723 29.959C108.738 27.9015 107.572 23.4884 104.157 22.7736Z" fill="black" fill-opacity="0.2"/>
</g>
<path fill-rule="evenodd" clip-rule="evenodd" d="M97.1223 74.5407C97.9707 86.1206 152.628 120.213 152.947 121.17C153.089 121.595 147.418 135.034 135.934 161.486L140.712 163.343C158.326 135.328 166.681 119.827 165.776 116.842C164.481 112.568 150.345 98.509 123.368 74.6639L97.1223 74.5407Z" fill="#B28B67"/>
<path fill-rule="evenodd" clip-rule="evenodd" d="M137.192 155.512L144.992 158.352C161.441 139.793 167.889 124.479 166.713 116.677C165.929 111.476 151.842 97.4397 124.451 74.5691L96.5628 74.5691C97.5144 101.386 148.175 121.272 148.853 122.414C149.53 123.557 142.862 134.75 137.192 155.512Z" fill="#2F3676"/>
<path fill-rule="evenodd" clip-rule="evenodd" d="M134.177 160.574C133.201 161.715 132.595 162.613 132.356 163.268C132.066 164.066 131.775 165.278 131.484 166.904C132.409 167.241 140.722 170.266 156.423 175.981C157.851 174.074 157.898 172.782 156.563 172.102C155.229 171.423 154.126 170.847 153.252 170.373L143.542 160.987C143.355 160.806 143.057 160.811 142.876 160.998C142.873 161.001 142.87 161.005 142.867 161.008L141.464 162.544C139.952 162.677 138.792 162.596 137.984 162.302C137.327 162.063 136.517 161.468 135.553 160.516L135.553 160.516C135.183 160.151 134.587 160.155 134.222 160.525C134.206 160.541 134.191 160.557 134.177 160.574Z" fill="#E4E4E4"/>
<path fill-rule="evenodd" clip-rule="evenodd" d="M103.407 74.5407L79.0583 132.995L55.1274 182.412H60.7735L122.545 74.5407H103.407Z" fill="#997659"/>
<path fill-rule="evenodd" clip-rule="evenodd" d="M54.7896 180.131C54.2632 181.536 54 182.588 54 183.285C54 184.134 54.1414 185.372 54.4241 187C55.4084 187 64.2549 187 80.9634 187C81.6531 184.72 81.255 183.489 79.7691 183.307C78.2832 183.125 77.0488 182.961 76.066 182.815L63.7308 177.316C63.4934 177.21 63.2152 177.316 63.1094 177.554C63.1076 177.558 63.1059 177.562 63.1042 177.566L62.3113 179.489C60.9357 180.131 59.8179 180.452 58.9579 180.452C58.2592 180.452 57.2943 180.17 56.0631 179.605L56.0631 179.605C55.5906 179.389 55.032 179.596 54.8154 180.069C54.8061 180.089 54.7975 180.11 54.7896 180.131Z" fill="#E4E4E4"/>
<path fill-rule="evenodd" clip-rule="evenodd" d="M57.2881 172.146L69.8337 174.499C79.5339 160.238 120.13 101.762 124.581 74.5407H96.6514C81.7874 94.2192 66.5344 157.649 57.2881 172.146Z" fill="#5C63AB"/>
<path fill-rule="evenodd" clip-rule="evenodd" d="M142.666 26.3009L160.501 20.9469C163.829 18.3569 166.967 16.4631 169.916 15.2657C170.774 15.1043 172.194 15.1981 170.42 17.2111C168.645 19.2242 166.869 21.4215 167.376 22.2656C167.882 23.1097 169.728 22.4734 170.263 23.8105C170.619 24.7019 167.56 25.3403 161.087 25.7258L147.22 33.8869L142.666 26.3009ZM141.09 57.7459L156.1 68.7677C160.17 69.8661 163.572 71.2328 166.303 72.8677C166.948 73.4556 167.728 74.6462 165.052 74.4404C162.376 74.2346 159.553 74.1386 159.183 75.0512C158.814 75.9638 160.433 77.0553 159.687 78.2867C159.19 79.1076 156.839 77.0491 152.635 72.1113L137.772 65.9479L141.09 57.7459Z" fill="#B28B67"/>
<path fill-rule="evenodd" clip-rule="evenodd" d="M117.777 28.0635C125.95 43.3041 137.77 54.9871 154.905 67.1321L148.417 74.4476C129.285 67.3377 119.187 63.048 114.229 48.6487C112.984 45.0348 112.115 33.5143 111.368 27.4528L117.777 28.0635Z" fill="#D81515"/>
<path fill-rule="evenodd" clip-rule="evenodd" d="M94.9272 78.8411H131.159C122.952 53.8108 118.759 36.6316 118.581 27.3035C118.572 26.8279 117.694 25.9899 117.305 26.0997C114.464 26.9022 111.423 26.6021 108.183 25.1994C99.5938 39.0138 96.6235 56.022 94.9272 78.8411Z" fill="#F2F2F2"/>
<path fill-rule="evenodd" clip-rule="evenodd" d="M111.275 25.2219C121.66 25.3069 138.51 27.2034 157.943 20.9647L159.862 30.5513C145.175 39.9972 130.303 47.3145 117.271 46.2754C122.93 70.5489 122.669 90.4193 110.176 90.4193C104.21 90.4193 97.7704 90.4193 90.8573 90.4193C87.7891 69.7993 95.853 41.2091 103.329 26.7884C103.614 26.2377 104.222 25.1996 105.654 25.1996C106.901 25.1996 108.772 25.1996 111.267 25.1996C111.27 25.207 111.272 25.2144 111.275 25.2219Z" fill="#D81515"/>
</g>
<defs>
<filter id="filter0_d" x="51" y="0" width="132.422" height="195" filterUnits="userSpaceOnUse" color-interpolation-filters="sRGB">
<feFlood flood-opacity="0" result="BackgroundImageFix"/>
<feColorMatrix in="SourceAlpha" type="matrix" values="0 0 0 0 0 0 0 0 0 0 0 0 0 0 0 0 0 0 127 0"/>
<feOffset dx="1" dy="4"/>
<feGaussianBlur stdDeviation="2"/>
<feColorMatrix type="matrix" values="0 0 0 0 0 0 0 0 0 0 0 0 0 0 0 0 0 0 0.22 0"/>
<feBlend mode="normal" in2="BackgroundImageFix" result="effect1_dropShadow"/>
<feBlend mode="normal" in="SourceGraphic" in2="effect1_dropShadow" result="shape"/>
</filter>
</defs>
</svg>
